<svg width="25" height="27" viewBox="0 0 25 27" fill="none" xmlns="http://www.w3.org/2000/svg"><path d="M7.476 18.204v3.22a5.29 5.29 0 0 0 1.44 3.648 4.805 4.805 0 0 0 3.479 1.511 4.805 4.805 0 0 0 3.477-1.511 5.29 5.29 0 0 0 1.441-3.648v-3.22a7.347 7.347 0 0 0 1.845-3.7 7.551 7.551 0 0 0-.415-4.154 7.156 7.156 0 0 0-2.537-3.218 6.659 6.659 0 0 0-3.811-1.207c-1.356 0-2.682.42-3.812 1.207a7.157 7.157 0 0 0-2.537 3.218 7.552 7.552 0 0 0-.415 4.154 7.347 7.347 0 0 0 1.845 3.7zm7.87 2.188H9.443V19.36h5.903v1.032zm-2.951 4.127a2.858 2.858 0 0 1-1.7-.57 3.085 3.085 0 0 1-1.075-1.494h5.539a3.085 3.085 0 0 1-1.071 1.49c-.495.37-1.086.57-1.693.574zm0-16.51c1.032 0 2.038.34 2.875.974a5.15 5.15 0 0 1 1.79 2.554 5.4 5.4 0 0 1 .03 3.17 5.162 5.162 0 0 1-1.744 2.589H9.443a5.163 5.163 0 0 1-1.743-2.59 5.4 5.4 0 0 1 .028-3.17 5.15 5.15 0 0 1 1.79-2.553 4.765 4.765 0 0 1 2.877-.974zm1.377-6.215a1.377 1.377 0 1 0-2.754 0 1.377 1.377 0 0 0 2.754 0zm9.64 12.394a1.377 1.377 0 1 0 0-2.754 1.377 1.377 0 0 0 0 2.755zm-22.035 0a1.377 1.377 0 1 0 0-2.754 1.377 1.377 0 0 0 0 2.755zm19.281-8.263a1.377 1.377 0 1 0 0-2.754 1.377 1.377 0 0 0 0 2.754zm-16.527 0a1.377 1.377 0 1 0 0-2.754 1.377 1.377 0 0 0 0 2.754z" fill="#000"/></svg>