<svg width="92" height="108" viewBox="0 0 92 108" fill="none" xmlns="http://www.w3.org/2000/svg"><path d="M37.173 0c-.93.1-1.8.511-2.467 1.167L15.104 20.77H4.46a4.16 4.16 0 0 0-4.153 4.154v8.308a4.16 4.16 0 0 0 4.153 4.154H5.5l9.475 56.986a4.251 4.251 0 0 0 0 .258c.677 3.273 1.948 6.401 4.287 8.959 2.334 2.555 5.898 4.412 9.865 4.412h33.746a13.547 13.547 0 0 0 9.865-4.283c2.372-2.554 3.668-5.836 4.287-9.217v-.129l9.6-56.986h.913a4.16 4.16 0 0 0 4.154-4.154v-8.308a4.16 4.16 0 0 0-4.154-4.154h-6.492L69.366 6.231a3.377 3.377 0 0 0-2.987-1.3c-.508.062-.996.24-1.425.519L53.012 13.5 40.67 1.167A4.153 4.153 0 0 0 37.177 0h-.004zm.52 10.127l10.646 10.642H27.042l10.65-10.646v.004zm28.428 2.725l6.36 7.917H60.277l-2.464-2.467 8.308-5.45zM13.808 37.385h2.858l4.93 4.934-5.973 5.84-1.815-10.774zm8.698 0h3.892l-1.948 1.948-1.94-1.948h-.004zm9.603 0h7.012l3.764 3.763-8.308 8.307-7.27-7.269 4.802-4.801zm12.981 0h1.43l-.649.78-.785-.78h.004zm7.398 0H59.5l4.802 4.801-7.27 7.27-8.307-8.437 3.763-3.634zm12.724 0h3.896l-1.953 1.948-1.94-1.948h-.004zm9.736 0h3.373L76.506 48.55l-6.364-6.364 4.81-4.801h-.004zm-29.21 6.62l8.44 8.308-8.436 8.308-8.307-8.308 8.307-8.307h-.004zm-21.284 1.168l7.136 7.14-8.308 8.308-6.75-6.75-.128-.648 8.05-8.05zm42.701 0l8.308 8.308-7.136 7.269-8.308-8.437 7.14-7.14h-.004zM34.578 55.3l8.308 8.308-8.308 8.307-8.308-8.307 8.308-8.308zm22.456 0l8.436 8.308-8.308 8.307-8.432-8.307 8.308-8.308h-.005zm17.396 5.192l-.91 5.45-2.339-2.338 3.249-3.116v.004zm-56.73.387l2.73 2.724-1.948 1.953-.781-4.677zm5.588 5.582l8.307 8.308-8.307 8.436-2.335-2.334-1.69-10.384 4.029-4.026h-.004zm22.46 0l8.432 8.437-8.308 8.308-8.432-8.437 8.307-8.308zm22.584 0l4.415 4.416-1.69 9.47-2.725 2.73-8.308-8.308 8.308-8.308zm-33.75 11.295l8.308 8.307-8.31 8.437-8.308-8.308 8.308-8.436zm22.456 0l8.307 8.307-8.307 8.308-8.308-8.308 8.308-8.307zm-33.621 11.29l8.307 8.307-2.338 2.34h-.262c-1.624 0-2.58-.54-3.63-1.687a10.987 10.987 0 0 1-2.468-4.935v-.129l-.52-3.115.906-.781h.005zm22.46 0l8.307 8.307-2.339 2.34H39.77l-2.338-2.34 8.44-8.307h.004zm22.455 0l1.167 1.171-.519 2.725c-.008.042.008.083 0 .129-.395 2.035-1.313 3.83-2.335 4.935-1.046 1.121-2.114 1.686-3.767 1.686h-.52l-2.334-2.338 8.308-8.308z" fill="#FE6459"/></svg>