<svg width="37" height="38" viewBox="0 0 37 38" fill="none" xmlns="http://www.w3.org/2000/svg"><path d="M29.834 21.465a1.728 1.728 0 0 0-1.728 1.728v.657l-2.558-2.558a4.822 4.822 0 0 0-6.791 0l-1.21 1.21-4.286-4.286a4.925 4.925 0 0 0-6.791 0l-2.558 2.558v-9.678A1.728 1.728 0 0 1 5.64 9.368h12.097a1.728 1.728 0 1 0 0-3.456H5.64a5.184 5.184 0 0 0-5.184 5.184v20.738a5.184 5.184 0 0 0 5.184 5.184h20.738a5.184 5.184 0 0 0 5.184-5.184v-8.64a1.728 1.728 0 0 0-1.728-1.729zM5.64 33.562a1.728 1.728 0 0 1-1.728-1.728v-6.17l5.012-5.011a1.365 1.365 0 0 1 1.883 0l5.478 5.478 7.431 7.43H5.64zm22.466-1.728c-.003.33-.112.652-.311.916L20 24.92l1.21-1.21a1.33 1.33 0 0 1 1.9 0l4.995 5.03v3.093zm8.14-25.42L31.06 1.228a1.729 1.729 0 0 0-.57-.363 1.728 1.728 0 0 0-1.314 0 1.728 1.728 0 0 0-.57.363l-5.184 5.184a1.736 1.736 0 0 0 2.454 2.454l2.229-2.246v9.66a1.728 1.728 0 0 0 3.456 0V6.62l2.23 2.246a1.728 1.728 0 0 0 2.453 0 1.729 1.729 0 0 0 0-2.454z" fill="#FFDE3B"/></svg>